<svg width="294" height="89" viewBox="0 0 294 89" fill="none" xmlns="http://www.w3.org/2000/svg">
<g clip-path="url(#clip0_60_363)">
<path d="M44.08 0C32.9637 0.00203789 22.2557 4.18987 14.0875 11.7299C5.91923 19.27 0.889708 29.6093 0 40.69L23.71 50.49C25.7868 49.0699 28.2441 48.31 30.76 48.31H31.45L42 33.05V32.83C42.002 29.5314 42.9819 26.3075 44.8159 23.5658C46.65 20.8241 49.2557 18.6878 52.3038 17.4268C55.3518 16.1659 58.7053 15.837 61.9402 16.4817C65.1752 17.1265 68.1463 18.7159 70.4781 21.049C72.8098 23.3821 74.3974 26.3542 75.0402 29.5896C75.683 32.8249 75.3521 36.1782 74.0893 39.2255C72.8266 42.2728 70.6887 44.8772 67.9459 46.7096C65.2031 48.542 61.9786 49.52 58.68 49.52H58.3L43.3 60.25C43.3 60.45 43.3 60.65 43.3 60.85C43.3051 63.9601 42.1524 66.9607 40.0665 69.2675C37.9806 71.5744 35.1107 73.0223 32.0159 73.3293C28.921 73.6363 25.8226 72.7804 23.3242 70.9283C20.8257 69.0762 19.106 66.3605 18.5 63.31L1.5 56.31C3.74516 64.2269 8.15397 71.3608 14.2309 76.9096C20.3078 82.4585 27.8119 86.2024 35.8998 87.7206C43.9877 89.2388 52.3387 88.4711 60.0142 85.5037C67.6897 82.5363 74.3855 77.487 79.3488 70.9232C84.3122 64.3593 87.3464 56.5413 88.1105 48.3477C88.8746 40.1541 87.3382 31.9098 83.6741 24.5414C80.0099 17.1731 74.3632 10.9728 67.3687 6.63738C60.3742 2.302 52.3091 0.00341646 44.08 0V0Z" fill="#231F20"/>
<path d="M27.72 67.1199L22.29 64.8799C23.0831 66.5223 24.3368 67.8984 25.8983 68.8407C27.4598 69.7829 29.2618 70.2505 31.0844 70.1866C32.9071 70.1226 34.6718 69.5298 36.1634 68.4804C37.6551 67.431 38.8092 65.9703 39.4852 64.2764C40.1612 62.5825 40.3298 60.7286 39.9705 58.9405C39.6112 57.1525 38.7395 55.5075 37.4617 54.2062C36.1838 52.905 34.555 52.0035 32.7738 51.6117C30.9926 51.22 29.1359 51.3549 27.43 51.9999L33 54.3499C33.8651 54.6804 34.6551 55.1812 35.3231 55.8227C35.9912 56.4641 36.5237 57.233 36.8891 58.084C37.2545 58.935 37.4453 59.8507 37.4503 60.7768C37.4554 61.7029 37.2744 62.6206 36.9183 63.4755C36.5621 64.3304 36.038 65.1051 35.377 65.7537C34.7159 66.4023 33.9314 66.9116 33.0699 67.2515C32.2084 67.5914 31.2874 67.7548 30.3616 67.7322C29.4358 67.7096 28.5239 67.5014 27.68 67.1199H27.72Z" fill="#231F20"/>
<path d="M69.8 32.83C69.7901 30.6328 69.1295 28.4878 67.9016 26.6658C66.6738 24.8437 64.9336 23.4262 62.9009 22.5922C60.8681 21.7582 58.6338 21.5451 56.4801 21.9798C54.3263 22.4145 52.3496 23.4775 50.7994 25.0346C49.2493 26.5918 48.1951 28.5732 47.7701 30.7289C47.3451 32.8846 47.5682 35.1179 48.4113 37.1469C49.2544 39.1759 50.6797 40.9097 52.5072 42.1294C54.3348 43.3491 56.4828 44 58.6799 44C60.1441 43.9987 61.5936 43.7085 62.9454 43.1461C64.2972 42.5837 65.5248 41.7601 66.5578 40.7224C67.5907 39.6848 68.4088 38.4536 68.9652 37.0993C69.5215 35.7449 69.8052 34.2941 69.8 32.83V32.83ZM50.3499 32.83C50.3499 31.1785 50.8397 29.5642 51.7572 28.191C52.6747 26.8179 53.9788 25.7476 55.5045 25.1156C57.0303 24.4836 58.7092 24.3183 60.329 24.6405C61.9487 24.9626 63.4365 25.7579 64.6043 26.9257C65.7721 28.0934 66.5673 29.5813 66.8895 31.201C67.2117 32.8208 67.0463 34.4997 66.4143 36.0254C65.7823 37.5512 64.7121 38.8553 63.339 39.7728C61.9658 40.6903 60.3514 41.18 58.7 41.18C57.6026 41.18 56.516 40.9637 55.5022 40.5435C54.4885 40.1232 53.5676 39.5073 52.7921 38.7308C52.0166 37.9544 51.4017 37.0327 50.9827 36.0185C50.5636 35.0043 50.3486 33.9174 50.3499 32.82V32.83Z" fill="#231F20"/>
<path d="M135.56 30.27L132.56 35.48C130.174 33.8572 127.365 32.9674 124.48 32.92C121.4 32.92 119.48 34.2 119.48 36.49C119.48 39.27 122.87 39.92 127.91 41.73C133.33 43.64 136.45 45.9 136.45 50.86C136.45 57.65 131.11 61.47 123.45 61.47C119.339 61.4813 115.295 60.4196 111.72 58.39L113.88 52.62C116.719 54.1195 119.87 54.9313 123.08 54.99C127.08 54.99 129.08 53.49 129.08 51.28C129.08 48.76 126.14 47.99 121.4 46.43C116 44.62 112.25 42.25 112.25 36.76C112.25 30.56 117.25 27 124.36 27C128.344 26.8884 132.262 28.0323 135.56 30.27V30.27Z" fill="#231F20"/>
<path d="M158.73 33.5601V60.9001H151.73V33.5601H141.63V27.5601H168.83V33.5601H158.73Z" fill="#231F20"/>
<path d="M183.55 33.5399V41.0499H196.9V47.0499H183.55V54.8699H199V60.8699H176.57V27.5699H199V33.5699L183.55 33.5399Z" fill="#231F20"/>
<path d="M214.62 54.4299L212.41 60.8999H205.1L217.59 27.5699H224.59L237.47 60.8999H229.9L227.65 54.4299H214.62ZM221.06 35.5199L216.51 48.8699H225.71L221.06 35.5199Z" fill="#231F20"/>
<path d="M273.28 40.4499L264.16 59.9299H260.22L251.22 40.6299V60.8999H244.54V27.5699H251.21L262.41 51.6299L273.21 27.5699H280V60.8999H273.31L273.28 40.4499Z" fill="#231F20"/>
<path d="M293.46 31.78C293.456 32.6933 293.181 33.5849 292.671 34.3422C292.16 35.0996 291.437 35.6886 290.592 36.0349C289.747 36.3812 288.818 36.4693 287.923 36.288C287.028 36.1066 286.206 35.6641 285.563 35.0162C284.919 34.3683 284.482 33.5441 284.306 32.6478C284.131 31.7515 284.225 30.8233 284.576 29.9804C284.928 29.1376 285.522 28.4179 286.283 27.9123C287.043 27.4068 287.937 27.138 288.85 27.1399C289.462 27.1247 290.071 27.2345 290.639 27.4627C291.207 27.6908 291.723 28.0325 292.154 28.4669C292.586 28.9013 292.924 29.4191 293.149 29.9888C293.373 30.5585 293.479 31.168 293.46 31.78V31.78ZM285 31.78C285 32.7984 285.404 33.7751 286.125 34.4952C286.845 35.2154 287.821 35.6199 288.84 35.6199C289.858 35.6199 290.835 35.2154 291.555 34.4952C292.275 33.7751 292.68 32.7984 292.68 31.78C292.68 30.7615 292.275 29.7848 291.555 29.0647C290.835 28.3445 289.858 27.94 288.84 27.94C287.821 27.94 286.845 28.3445 286.125 29.0647C285.404 29.7848 285 30.7615 285 31.78V31.78ZM288.91 29.4099C290.11 29.4099 290.51 30.0399 290.51 30.7199C290.514 30.9876 290.438 31.2503 290.292 31.4747C290.146 31.699 289.936 31.8749 289.69 31.9799L290.76 33.9799H289.88L288.98 32.2H288.05V33.9999H287.32V29.4099H288.91ZM288.05 31.54H288.87C288.975 31.5511 289.082 31.5401 289.183 31.5076C289.284 31.475 289.377 31.4217 289.456 31.3511C289.535 31.2804 289.599 31.194 289.642 31.0974C289.686 31.0007 289.709 30.896 289.71 30.79C289.71 30.37 289.48 30.1 288.87 30.1H288.05V31.54Z" fill="#231F20"/>
</g>
<defs>
<clipPath id="clip0_60_363">
<rect width="293.46" height="88.47" fill="white"/>
</clipPath>
</defs>
</svg>
