<svg width="96" height="92" viewBox="0 0 96 92" fill="none" xmlns="http://www.w3.org/2000/svg">
<g clip-path="url(#clip0_60_406)">
<path d="M95.1 13.23C95.1284 13.8262 95.0356 14.4219 94.827 14.9811C94.6185 15.5402 94.2986 16.0513 93.8867 16.4832C93.4749 16.9151 92.9797 17.259 92.4311 17.4939C91.8824 17.7289 91.2918 17.85 90.695 17.85C90.0982 17.85 89.5076 17.7289 88.959 17.4939C88.4104 17.259 87.9152 16.9151 87.5033 16.4832C87.0915 16.0513 86.7716 15.5402 86.5631 14.9811C86.3545 14.4219 86.2616 13.8262 86.29 13.23C86.2616 12.6339 86.3545 12.0382 86.5631 11.479C86.7716 10.9199 87.0915 10.4088 87.5033 9.9769C87.9152 9.54496 88.4104 9.20112 88.959 8.96618C89.5076 8.73124 90.0982 8.61011 90.695 8.61011C91.2918 8.61011 91.8824 8.73124 92.4311 8.96618C92.9797 9.20112 93.4749 9.54496 93.8867 9.9769C94.2986 10.4088 94.6185 10.9199 94.827 11.479C95.0356 12.0382 95.1284 12.6339 95.1 13.23V13.23ZM86.95 13.23C86.95 14.222 87.3441 15.1732 88.0455 15.8746C88.7468 16.576 89.6981 16.97 90.69 16.97C91.6819 16.97 92.6332 16.576 93.3346 15.8746C94.036 15.1732 94.43 14.222 94.43 13.23C94.43 12.2381 94.036 11.2869 93.3346 10.5855C92.6332 9.88408 91.6819 9.49005 90.69 9.49005C89.6981 9.49005 88.7468 9.88408 88.0455 10.5855C87.3441 11.2869 86.95 12.2381 86.95 13.23ZM90.75 11C91.91 11 92.26 11.61 92.26 12.24C92.2596 12.4953 92.1846 12.7448 92.0442 12.958C91.9039 13.1712 91.7043 13.3387 91.47 13.44L92.47 15.37H91.69L90.82 13.65H89.9V15.37H89.26V11H90.75ZM89.9 13H90.71C90.816 13.0111 90.9231 13.0001 91.0246 12.9677C91.1261 12.9352 91.2198 12.8821 91.2996 12.8116C91.3795 12.7411 91.4439 12.6548 91.4887 12.5581C91.5336 12.4615 91.5578 12.3566 91.56 12.25C91.56 11.83 91.34 11.56 90.71 11.56H89.9V13Z" fill="#ECEFF4"/>
<path d="M45.45 3.01906e-08C33.9806 0.00192987 22.9332 4.32586 14.5097 12.1099C6.08628 19.894 0.905476 30.5664 0 42L24.44 52.1C26.5828 50.639 29.1165 49.8583 31.71 49.86H32.43L43.3 34.07V33.85C43.3 30.4482 44.3088 27.1227 46.1987 24.2942C48.0887 21.4657 50.775 19.2611 53.9178 17.9593C57.0607 16.6574 60.5191 16.3168 63.8556 16.9805C67.192 17.6442 70.2568 19.2823 72.6622 21.6878C75.0677 24.0932 76.7058 27.158 77.3695 30.4944C78.0332 33.8309 77.6926 37.2893 76.3907 40.4322C75.0889 43.575 72.8843 46.2613 70.0558 48.1513C67.2273 50.0412 63.9018 51.05 60.5 51.05H60.11L44.6 62.11C44.6 62.31 44.6 62.51 44.6 62.72C44.6029 65.925 43.4135 69.0165 41.2632 71.3932C39.1129 73.7698 36.1555 75.2616 32.9661 75.5785C29.7768 75.8953 26.5837 75.0144 24.0078 73.1073C21.432 71.2001 19.6577 68.403 19.03 65.26L1.57 58C3.87727 66.1651 8.41686 73.5245 14.6782 79.2505C20.9396 84.9765 28.6743 88.842 37.0125 90.4123C45.3508 91.9826 53.9617 91.1953 61.877 88.139C69.7922 85.0828 76.6978 79.8787 81.817 73.1122C86.9362 66.3457 90.066 58.2852 90.8544 49.8371C91.6428 41.389 90.0585 32.8885 86.2797 25.2916C82.5009 17.6947 76.6775 11.3028 69.4645 6.83474C62.2514 2.36668 53.9348 -0.000308666 45.45 3.01906e-08V3.01906e-08Z" fill="#ECEFF4"/>
<path d="M28.58 69.2L23 66.88C23.8129 68.5744 25.1015 69.9955 26.7085 70.97C28.3155 71.9444 30.1713 72.43 32.0496 72.3675C33.9279 72.3049 35.7474 71.697 37.286 70.6178C38.8246 69.5387 40.0159 68.035 40.7143 66.2902C41.4127 64.5455 41.5881 62.6352 41.2192 60.7924C40.8502 58.9496 39.9528 57.2541 38.6365 55.9128C37.3202 54.5714 35.6418 53.6423 33.8064 53.2387C31.9709 52.8351 30.0576 52.9745 28.3 53.64L34.07 56C34.9367 56.3604 35.724 56.8881 36.3868 57.5528C37.0496 58.2175 37.5749 59.0063 37.9329 59.8741C38.2909 60.7418 38.4744 61.6716 38.4731 62.6103C38.4717 63.549 38.2855 64.4782 37.925 65.345C37.5645 66.2117 37.0369 66.9989 36.3721 67.6617C35.7074 68.3245 34.9187 68.8499 34.0509 69.2079C33.1831 69.5658 32.2534 69.7494 31.3147 69.748C30.376 69.7467 29.4467 69.5604 28.58 69.2V69.2Z" fill="#ECEFF4"/>
<path d="M72 33.85C72.002 31.5823 71.3317 29.3649 70.0739 27.478C68.8161 25.5911 67.0272 24.1194 64.9332 23.2488C62.8393 22.3783 60.5343 22.148 58.3095 22.587C56.0847 23.026 54.0399 24.1147 52.4336 25.7154C50.8273 27.3161 49.7316 29.357 49.2848 31.5803C48.838 33.8035 49.0603 36.1093 49.9236 38.2063C50.7868 40.3032 52.2523 42.0973 54.1348 43.3617C56.0173 44.626 58.2323 45.304 60.5 45.31C62.0076 45.3126 63.5009 45.0183 64.8947 44.4438C66.2886 43.8693 67.5556 43.0259 68.6235 41.9617C69.6913 40.8975 70.5391 39.6335 71.1185 38.2416C71.6978 36.8498 71.9974 35.3575 72 33.85ZM52 33.85C52 32.1466 52.5052 30.4816 53.4517 29.0655C54.3983 27.6493 55.7436 26.5458 57.3174 25.8944C58.8913 25.243 60.623 25.0731 62.2934 25.4061C63.9639 25.7392 65.498 26.5602 66.7017 27.7653C67.9055 28.9704 68.7247 30.5055 69.0558 32.1764C69.3869 33.8472 69.2149 35.5787 68.5617 37.1518C67.9085 38.7249 66.8034 40.0689 65.3862 41.0138C63.969 41.9587 62.3033 42.4619 60.6 42.46C59.4609 42.4705 58.3311 42.255 57.2759 41.8258C56.2207 41.3966 55.2612 40.7623 54.4529 39.9596C53.6446 39.1569 53.0037 38.2018 52.5672 37.1496C52.1307 36.0974 51.9073 34.9691 51.91 33.83L52 33.85Z" fill="#ECEFF4"/>
</g>
<defs>
<clipPath id="clip0_60_406">
<rect width="95.1" height="91.21" fill="white"/>
</clipPath>
</defs>
</svg>
