<svg width="182" height="147" viewBox="0 0 182 147" fill="none" xmlns="http://www.w3.org/2000/svg">
<g clip-path="url(#clip0_60_394)">
<path d="M89.6 0C78.4837 0.00203789 67.7757 4.18987 59.6075 11.7299C51.4392 19.27 46.4097 29.6093 45.52 40.69L69.23 50.49C71.2911 49.0761 73.7306 48.3164 76.23 48.31H76.93L87.51 33.05V32.83C87.51 29.529 88.4889 26.3022 90.3228 23.5575C92.1567 20.8129 94.7633 18.6737 97.813 17.4104C100.863 16.1472 104.219 15.8167 107.456 16.4607C110.694 17.1047 113.667 18.6942 116.002 21.0284C118.336 23.3625 119.925 26.3364 120.569 29.5739C121.213 32.8115 120.883 36.1673 119.62 39.217C118.356 42.2667 116.217 44.8733 113.472 46.7072C110.728 48.5412 107.501 49.52 104.2 49.52H103.82L88.82 60.25C88.82 60.45 88.82 60.65 88.82 60.85C88.849 63.9775 87.7064 67.0026 85.6171 69.3299C83.5277 71.6572 80.6429 73.1183 77.5304 73.4255C74.418 73.7328 71.3032 72.8639 68.7991 70.99C66.2951 69.1161 64.5831 66.3728 64 63.3L47 56.3C49.2432 64.2172 53.6501 71.3518 59.7254 76.902C65.8007 82.4522 73.3036 86.198 81.3908 87.7184C89.478 89.2387 97.8289 88.4734 105.505 85.5083C113.181 82.5433 119.878 77.4962 124.843 70.9341C129.809 64.3721 132.845 56.5553 133.612 48.3622C134.379 40.1692 132.845 31.9247 129.184 24.5553C125.522 17.1859 119.878 10.9838 112.885 6.64597C105.893 2.30816 97.8289 0.00660973 89.6 0V0Z" fill="#ECEFF4"/>
<path d="M73.24 67.1201L67.8 64.8801C68.5888 66.5229 69.8381 67.901 71.3959 68.8467C72.9536 69.7924 74.7528 70.2649 76.5742 70.2067C78.3957 70.1485 80.1609 69.5621 81.6551 68.5188C83.1493 67.4755 84.3081 66.0204 84.9903 64.3306C85.6726 62.6407 85.8489 60.789 85.4978 59.0007C85.1468 57.2125 84.2835 55.5648 83.013 54.2583C81.7425 52.9518 80.1197 52.0428 78.3419 51.6418C76.5642 51.2409 74.7083 51.3653 73 52.0001L78.61 54.3201C80.2498 55.0613 81.5363 56.4122 82.1967 58.0863C82.8571 59.7603 82.8394 61.6257 82.1474 63.2869C81.4553 64.9481 80.1434 66.2743 78.4898 66.9843C76.8362 67.6943 74.9711 67.7323 73.29 67.09L73.24 67.1201Z" fill="#ECEFF4"/>
<path d="M115.31 32.83C115.3 30.6324 114.639 28.487 113.411 26.6647C112.183 24.8424 110.442 23.4249 108.409 22.5912C106.375 21.7576 104.14 21.545 101.986 21.9806C99.8324 22.4161 97.8557 23.4801 96.306 25.0382C94.7562 26.5963 93.7029 28.5787 93.279 30.7351C92.8551 32.8914 93.0796 35.125 93.9242 37.1538C94.7689 39.1827 96.1957 40.9157 98.0246 42.1342C99.8535 43.3527 102.002 44.002 104.2 44C105.664 43.9987 107.113 43.7085 108.464 43.1459C109.815 42.5834 111.042 41.7596 112.074 40.7218C113.106 39.6841 113.924 38.4528 114.479 37.0985C115.034 35.7442 115.317 34.2937 115.31 32.83V32.83ZM95.86 32.83C95.858 31.1757 96.3469 29.558 97.2648 28.1817C98.1826 26.8054 99.4882 25.7323 101.016 25.0983C102.544 24.4643 104.226 24.2979 105.849 24.6202C107.471 24.9424 108.962 25.7388 110.131 26.9086C111.301 28.0784 112.098 29.5689 112.42 31.1915C112.742 32.8141 112.576 34.4959 111.942 36.0239C111.308 37.5519 110.235 38.8574 108.858 39.7753C107.482 40.6931 105.864 41.182 104.21 41.18C103.113 41.18 102.026 40.9637 101.012 40.5434C99.9986 40.1232 99.0776 39.5072 98.3021 38.7308C97.5266 37.9544 96.9118 37.0327 96.4928 36.0185C96.0737 35.0043 95.8587 33.9174 95.86 32.82V32.83Z" fill="#ECEFF4"/>
<path d="M181.2 116.72C181.196 117.633 180.921 118.525 180.411 119.282C179.9 120.04 179.177 120.629 178.332 120.975C177.487 121.321 176.558 121.409 175.663 121.228C174.768 121.047 173.946 120.604 173.303 119.956C172.659 119.308 172.222 118.484 172.046 117.588C171.871 116.692 171.965 115.763 172.316 114.92C172.668 114.078 173.262 113.358 174.023 112.852C174.783 112.347 175.677 112.078 176.59 112.08C177.202 112.065 177.811 112.175 178.379 112.403C178.947 112.631 179.463 112.973 179.894 113.407C180.326 113.841 180.664 114.359 180.889 114.929C181.113 115.499 181.219 116.108 181.2 116.72V116.72ZM172.74 116.72C172.75 117.477 172.983 118.214 173.411 118.839C173.838 119.463 174.441 119.948 175.142 120.231C175.844 120.514 176.614 120.584 177.356 120.431C178.097 120.278 178.776 119.909 179.309 119.371C179.841 118.833 180.203 118.15 180.348 117.407C180.494 116.664 180.416 115.895 180.126 115.196C179.835 114.497 179.344 113.9 178.715 113.479C178.086 113.058 177.347 112.832 176.59 112.83C176.077 112.814 175.566 112.905 175.089 113.095C174.612 113.286 174.18 113.573 173.819 113.937C173.458 114.302 173.175 114.738 172.99 115.216C172.804 115.695 172.719 116.207 172.74 116.72ZM176.65 114.35C177.85 114.35 178.25 114.98 178.25 115.66C178.254 115.928 178.178 116.19 178.032 116.415C177.886 116.639 177.676 116.815 177.43 116.92L178.5 118.92H177.62L176.72 117.14H175.79V118.92H175.06V114.34L176.65 114.35ZM175.79 116.48H176.61C176.715 116.491 176.822 116.48 176.923 116.448C177.024 116.415 177.117 116.362 177.196 116.291C177.275 116.221 177.339 116.134 177.382 116.037C177.426 115.941 177.449 115.836 177.45 115.73C177.45 115.31 177.22 115.04 176.61 115.04H175.79V116.48Z" fill="#ECEFF4"/>
<path d="M23.81 115.22L20.81 120.43C18.4238 118.807 15.6153 117.917 12.73 117.87C9.64 117.87 7.73 119.15 7.73 121.44C7.73 124.22 11.13 124.87 16.17 126.68C21.59 128.59 24.71 130.85 24.71 135.81C24.71 142.6 19.36 146.42 11.71 146.42C7.60524 146.429 3.56906 145.368 0 143.34L2.16 137.57C4.99823 139.071 8.14986 139.883 11.36 139.94C15.41 139.94 17.36 138.44 17.36 136.23C17.36 133.7 14.42 132.94 9.68 131.37C4.28 129.57 0.53 127.2 0.53 121.71C0.53 115.51 5.53 111.95 12.64 111.95C16.6137 111.845 20.5204 112.988 23.81 115.22V115.22Z" fill="#ECEFF4"/>
<path d="M47.49 118.51V145.85H40.49V118.51H30.38V112.51H57.59V118.51H47.49Z" fill="#ECEFF4"/>
<path d="M71.79 118.49V126H85.15V132H71.79V139.82H87.29V145.82H64.82V112.52H87.29V118.52L71.79 118.49Z" fill="#ECEFF4"/>
<path d="M102.87 139.38L100.66 145.85H93.35L105.84 112.52H112.84L125.68 145.85H118.12L115.87 139.38H102.87ZM109.31 120.47L104.76 133.82H114L109.31 120.47Z" fill="#ECEFF4"/>
<path d="M161 125.4L151.88 144.88H148L139 125.58V145.85H132.31V112.52H139L150.2 136.58L161 112.52H167.73V145.85H161V125.4Z" fill="#ECEFF4"/>
</g>
<defs>
<clipPath id="clip0_60_394">
<rect width="181.2" height="146.42" fill="white"/>
</clipPath>
</defs>
</svg>
